#!OML:ASF F:\VICON\USERDATA\INSTALL\Justin_Nancy\Justin_Nancy.ASF
:FULLY-SPECIFIED
:DEGREES
160
root -3.56776 16.8244 2.99315 -14.5434 73.5711 -26.0281
lowerback 8.53541 3.84271 5.98775
upperback -0.849847 5.89702 2.08899
thorax -5.29488 2.77966 -1.90799
lowerneck -18.964 -4.47096 -8.22548
upperneck 18.8374 -4.94035 5.38626
head 9.4183 -2.27504 2.54514
rclavicle 1.25234e-014 5.96354e-015
rhumerus -34.5057 -14.2194 -72.2736
rradius 29.8654
rwrist 3.64626
rhand -20.1587 10.344
rfingers 7.12502
rthumb 6.18663 -19.5457
lclavicle 1.25234e-014 5.96354e-015
lhumerus -33.7803 29.0004 68.1408
lradius 25.9851
lwrist -3.68668
lhand -19.1541 28.1998
lfingers 7.12502
lthumb 7.15636 58.0588
rfemur 9.98344 0.786387 25.6968
rtibia 26.1715
rfoot 8.70928 13.9771
rtoes -9.98118
lfemur -40.2822 -1.16927 -30.0889
ltibia 32.7496
lfoot -9.62594 0.0900219
ltoes 19.8541
161
root -3.37385 16.8747 3.11926 -15.4141 73.6207 -26.4405
lowerback 8.72124 4.07062 6.0098
upperback -0.673745 6.20896 2.10736
thorax -5.19168 2.93961 -1.94329
lowerneck -18.7122 -4.54287 -8.15239
upperneck 18.8219 -5.04164 5.22657
head 9.36875 -2.33735 2.46583
rclavicle -6.69904e-014 -2.62396e-014
rhumerus -34.8011 -13.6801 -73.0391
rradius 30.2535
rwrist 2.4641
rhand -19.4721 10.8069
rfingers 7.12502
rthumb 6.84941 -19.0623
lclavicle -6.69904e-014 -2.62396e-014
lhumerus -34.5271 29.9143 67.5808
lradius 25.7958
lwrist -4.54695
lhand -18.9026 28.4833
lfingers 7.12502
lthumb 7.39921 58.3339
rfemur 8.81445 0.944225 25.6364
rtibia 29.4754
rfoot 9.75096 15.2942
rtoes -12.1713
lfemur -39.3256 -0.886654 -29.5929
ltibia 33.5106
lfoot -9.8289 -0.200653
ltoes 23.2662
162
root -3.18591 16.9036 3.23283 -15.3124 73.906 -25.9949
lowerback 8.83924 4.16726 5.95546
upperback -0.555587 6.32454 1.97969
thorax -5.11589 2.99978 -2.06279
lowerneck -18.7817 -4.54105 -7.83618
upperneck 19.1658 -5.07103 4.96909
head 9.48741 -2.35419 2.32153
rclavicle -7.95139e-014 -2.62396e-014
rhumerus -34.9024 -13.1504 -73.8775
rradius 30.4357
rwrist 1.9321
rhand -19.0559 11.248
rfingers 7.12502
rthumb 7.25123 -18.6077
lclavicle -7.95139e-014 -2.62396e-014
lhumerus -35.4651 30.8793 66.9975
lradius 25.8404
lwrist -5.18273
lhand -18.3461 28.8359
lfingers 7.12502
lthumb 7.93633 58.6669
rfemur 7.23651 0.937396 25.2302
rtibia 33.2426
rfoot 9.83818 15.6694
rtoes -13.2766
lfemur -38.4048 -0.583917 -29.7779
ltibia 33.902
lfoot -9.98889 -0.120899
ltoes 21.9451
163
root -3.01165 16.9118 3.32602 -14.4479 74.3019 -25.0059
lowerback 8.79441 4.01707 5.75128
upperback -0.491019 6.0954 1.97807
thorax -5.05936 2.89521 -1.92041
lowerneck -20.0327 -4.37774 -10.8632
upperneck 20.7235 -4.27731 6.77641
head 10.334 -1.99859 3.59246
rclavicle -4.06515e-014 -1.59028e-015
rhumerus -34.6502 -11.4454 -74.7863
rradius 30.6029
rwrist 1.84094
rhand -18.2403 11.2044
rfingers 7.12502
rthumb 8.03843 -18.6228
lclavicle -4.06515e-014 -1.59028e-015
lhumerus -36.5407 31.3621 66.8309
lradius 25.9139
lwrist -4.18343
lhand -19.4751 28.9303
lfingers 7.12502
lthumb 6.8465 58.7996
rfemur 5.10541 0.466746 24.4627
rtibia 37.4309
rfoot 8.47718 15.913
rtoes -18.4183
lfemur -37.5937 -0.308477 -30.3818
ltibia 33.7971
lfoot -9.86923 -0.110319
ltoes 16.7854
164
root -2.83911 16.9265 3.415 -12.0009 74.777 -22.5074
lowerback 8.68752 3.89765 5.13158
upperback -0.499479 5.85197 1.83189
thorax -5.06861 2.78777 -1.69661
lowerneck -18.8433 -4.20136 -7.80009
upperneck 19.5368 -4.4344 4.23036
head 9.56607 -2.13818 2.14971
rclavicle -7.95139e-016 1.19271e-015
rhumerus -34.3554 -10.5605 -75.4926
rradius 30.496
rwrist 2.36034
rhand -16.7705 12.1742
rfingers 7.12502
rthumb 9.45676 -17.5937
lclavicle -7.95139e-016 1.19271e-015
lhumerus -37.3295 30.9641 66.9895
lradius 25.7629
lwrist -2.94588
lhand -20.9668 28.7448
lfingers 7.12502
lthumb 5.40639 58.6558
rfemur 2.74736 0.0483431 23.2874
rtibia 41.7676
rfoot 6.26731 15.1424
rtoes -23.7203
lfemur -36.6895 0.0940395 -31.4101
ltibia 33.3044
lfoot -9.61984 -0.525256
ltoes 13.4767
165
root -2.66452 16.9477 3.52223 -8.08198 75.4683 -18.2229
lowerback 8.84459 3.81331 3.77783
upperback -0.498754 5.58967 1.62358
thorax -5.27631 2.68389 -1.151
lowerneck -19.013 -4.15589 -7.66863
upperneck 20.1824 -4.3611 4.06618
head 9.81317 -2.11048 2.08341
rclavicle -1.75924e-014 -1.23246e-014
rhumerus -34.2411 -10.3905 -76.0087
rradius 30.5531
rwrist 3.13039
rhand -15.4774 13.0814
rfingers 7.12502
rthumb 10.7042 -16.6259
lclavicle -1.75924e-014 -1.23246e-014
lhumerus -38.1554 30.5624 67.0903
lradius 25.5463
lwrist -2.47559
lhand -21.1138 28.4327
lfingers 7.12502
lthumb 5.26444 58.3473
rfemur 0.680085 -0.429279 21.7255
rtibia 46.0682
rfoot 4.48478 12.9786
rtoes -25.3001
lfemur -35.2242 0.541448 -32.8477
ltibia 32.4823
lfoot -9.52272 -0.986415
ltoes 12.4588
166
root -2.48585 16.9717 3.62667 -4.33112 76.3017 -13.9755
lowerback 9.08845 3.57523 2.5554
upperback -0.434315 5.13883 1.48313
thorax -5.45661 2.48867 -0.581365
lowerneck -18.9032 -3.97854 -7.92112
upperneck 20.4398 -4.05797 4.11546
head 9.87223 -1.98476 2.18969
rclavicle 2.08724e-014 5.1684e-015
rhumerus -34.121 -9.38764 -76.7882
rradius 30.9352
rwrist 3.02498
rhand -15.2918 13.0051
rfingers 7.12502
rthumb 10.8833 -16.6929
lclavicle 2.08724e-014 5.1684e-015
lhumerus -38.8336 29.8931 67.4144
lradius 25.2647
lwrist -1.73822
lhand -20.7392 28.3568
lfingers 7.12502
lthumb 5.62616 58.2621
rfemur -1.1334 -1.32776 20.1038
rtibia 49.914
rfoot 3.254 10.5364
rtoes -24.6275
lfemur -33.6516 0.850391 -34.2193
ltibia 31.8275
lfoot -9.57178 -1.36062
ltoes 11.4395
167
root -2.30606 16.9998 3.70125 1.3901 77.0637 -8.06252
lowerback 9.07255 3.32865 1.53621
upperback -0.447267 4.67354 1.11754
thorax -5.52078 2.27967 -0.333902
lowerneck -18.755 -3.88935 -8.43862
upperneck 20.5519 -3.87051 4.44508
head 9.8914 -1.90176 2.42152
rclavicle -5.66536e-015 -1.86858e-014
rhumerus -33.9939 -8.49214 -77.501
rradius 31.3372
rwrist 3.16422
rhand -15.2829 12.9181
rfingers 7.12502
rthumb 10.8919 -16.7794
lclavicle -5.66536e-015 -1.86858e-014
lhumerus -39.4679 29.8205 67.4104
lradius 24.8576
lwrist -2.06762
lhand -20.823 27.6419
lfingers 7.12502
lthumb 5.54528 57.5494
rfemur -3.3873 -2.776 17.7995
rtibia 53.5797
rfoot 2.06244 8.90951
rtoes -23.6038
lfemur -32.3172 0.306362 -35.6359
ltibia 30.9649
lfoot -9.37031 -1.41016
ltoes 13.1637
168
root -2.12121 17.0435 3.87095 -2.89449 77.3301 -11.8758
lowerback 9.2957 3.2717 1.32972
upperback -0.295086 4.62095 1.74618
thorax -5.55741 2.27227 0.430665
lowerneck -18.71 -3.82727 -8.52171
upperneck 20.7692 -3.70623 4.22266
head 9.94713 -1.85869 2.38274
rclavicle 1.09332e-013 1.51076e-014
rhumerus -33.922 -7.76571 -77.7626
rradius 31.6606
rwrist 3.68165
rhand -14.9826 13.0478
rfingers 7.12502
rthumb 11.1815 -16.6342
lclavicle 1.09332e-013 1.51076e-014
lhumerus -40.1128 30.1422 67.444
lradius 24.3588
lwrist -3.24545
lhand -20.5411 26.8308
lfingers 7.12502
lthumb 5.81745 56.7309
rfemur -5.0138 -3.09442 18.7641
rtibia 56.6145
rfoot 0.857496 5.96007
rtoes -23.3616
lfemur -30.7796 -0.149493 -34.1138
ltibia 30.381
lfoot -9.19639 -1.1113
ltoes 15.7839
169
root -1.95835 17.046 3.87413 5.63329 78.5375 -3.44981
lowerback 9.30722 2.79214 0.736206
upperback -0.525471 3.87894 1.15383
thorax -5.7999 1.90896 0.241439
lowerneck -18.5951 -3.62068 -8.21267
upperneck 20.9968 -3.40658 3.77875
head 9.97188 -1.74797 2.22096
rclavicle 2.28602e-015 1.15295e-014
rhumerus -33.9779 -7.38701 -77.923
rradius 32.0098
rwrist 4.71862
rhand -14.2642 13.2364
rfingers 7.12502
rthumb 11.8744 -16.4069
lclavicle 2.28602e-015 1.15295e-014
lhumerus -40.6044 29.8703 67.8485
lradius 23.8065
lwrist -3.7741
lhand -20.0201 26.7061
lfingers 7.12502
lthumb 6.32043 56.5918
rfemur -7.43974 -5.4936 15.6802
rtibia 59.5661
rfoot -0.292708 4.97805
rtoes -21.9164
lfemur -29.7926 -1.00293 -36.2322
ltibia 29.7896
lfoot -9.09804 -1.37582
ltoes 17.1347
170
root -1.77409 17.0632 3.96812 7.40176 79.0526 -1.54718
lowerback 9.26557 2.53083 0.404239
upperback -0.59601 3.48929 1.08459
thorax -5.86446 1.72545 0.409969
lowerneck -18.3733 -3.46981 -7.76214
upperneck 21.1696 -3.27731 3.50906
head 9.96963 -1.68431 2.07341
rclavicle -5.76476e-014 -7.95139e-015
rhumerus -34.0582 -7.23383 -78.5295
rradius 32.3433
rwrist 4.75158
rhand -14.9775 12.6215
rfingers 7.12502
rthumb 11.1864 -17.0603
lclavicle -5.76476e-014 -7.95139e-015
lhumerus -40.9248 29.1586 68.1967
lradius 23.1518
lwrist -4.26411
lhand -19.9746 26.3347
lfingers 7.12502
lthumb 6.3643 56.2191
rfemur -9.36823 -6.40038 14.9168
rtibia 61.9733
rfoot -1.32487 3.14201
rtoes -20.9619
lfemur -28.7312 -1.17491 -36.4898
ltibia 29.6174
lfoot -9.30222 -1.34015
ltoes 17.8871
171
root -1.58183 17.092 4.08836 8.58715 79.5273 -0.177489
lowerback 9.0722 2.34479 -0.177915
upperback -0.51423 3.18232 1.20191
thorax -5.70536 1.5951 0.9116
lowerneck -18.3386 -3.4514 -7.82853
upperneck 21.226 -3.2311 3.49823
head 9.98181 -1.66989 2.08797
rclavicle -2.11706e-014 1.98785e-015
rhumerus -33.8803 -7.59207 -78.6842
rradius 32.3138
rwrist 5.71238
rhand -16.2797 12.7613
rfingers 7.12502
rthumb 9.93033 -16.9845
lclavicle -2.11706e-014 1.98785e-015
lhumerus -41.2169 29.5404 68.1351
lradius 22.4847
lwrist -6.05758
lhand -19.2452 26.2591
lfingers 7.12502
lthumb 7.06843 56.1211
rfemur -11.1444 -6.87607 14.4858
rtibia 64.1007
rfoot -2.58276 1.22774
rtoes -17.8348
lfemur -27.5185 -1.1778 -36.4806
ltibia 29.3551
lfoot -9.54972 -1.56092
ltoes 19.0827
172
root -1.40835 17.0898 4.15925 9.69143 80.2679 1.03083
lowerback 9.09187 1.99871 -0.000578858
upperback -0.512036 2.75044 1.34341
thorax -5.70365 1.38008 1.01954
lowerneck -18.3338 -3.3629 -8.35708
upperneck 21.2475 -2.97843 3.61045
head 9.98537 -1.58324 2.25139
rclavicle -3.0911e-014 -6.36111e-015
rhumerus -33.7539 -7.58936 -78.6207
rradius 32.3175
rwrist 6.30765
rhand -17.0664 12.7466
rfingers 7.12502
rthumb 9.17124 -17.0339
lclavicle -3.0911e-014 -6.36111e-015
lhumerus -41.7668 30.7234 67.7966
lradius 21.8425
lwrist -8.57658
lhand -17.4216 25.6591
lfingers 7.12502
lthumb 8.82855 55.4544
rfemur -13.1858 -7.68033 13.8185
rtibia 65.9774
rfoot -3.61942 -0.0502935
rtoes -11.0501
lfemur -26.7235 -2.22437 -36.4037
ltibia 29.545
lfoot -9.69942 -1.13637
ltoes 20.8895
